
<svg xmlns="http://www.w3.org/2000/svg" version="1.1" xmlns:xlink="http://www.w3.org/1999/xlink" preserveAspectRatio="none" x="0px" y="0px" width="550px" height="400px" viewBox="0 0 550 400">
<defs>
<g id="Layer2_0_FILL">
<path fill="#1E1E1E" stroke="none" d="
M 277.3 176.95
L 263.4 176.4 258.9 163.25 254.15 176.25 240.25 176.45 251.2 185.05 247.05 198.35 258.6 190.6 269.95 198.6 266.15 185.2 277.3 176.95
M 258.6 189.2
L 249.1 195.7 252.85 184.45 243.95 177.45 254.95 177.45 258.85 165.7 262.15 177.6 274.2 178.1 264.6 184.65 267.7 195.85 258.6 189.2 Z"/>

<path fill="#331A4D" stroke="none" d="
M 264.6 184.65
L 274.2 178.1 262.15 177.6 258.85 165.7 258.6 189.2 267.7 195.85 264.6 184.65 Z"/>

<path fill="#8040BF" stroke="none" d="
M 249.1 195.7
L 258.6 189.2 258.85 165.7 254.95 177.45 243.95 177.45 252.85 184.45 249.1 195.7 Z"/>
</g>

<g id="Layer1_0_FILL">
<path fill="#CCCCCC" stroke="none" d="
M 312.7 155.3
Q 310.1 151.65 306.2 150.85 302.1 149.95 290.9 149.95
L 279.6 149.95 279.6 211.25 295.5 211.25 295.5 183.6
Q 298.8 183.6 299.6 184.75 300.3 186 300.3 190.9
L 300.3 211.25 315.2 211.25 315.2 195.05
Q 315.2 187.65 314.8 186.05 314.4 184.4 312.75 182.4 311.1 180.45 306.35 179.2 311.6 178.75 313.4 176.3 315.2 173.8 315.2 166.65 315.2 158.85 312.7 155.3
M 299.35 161.35
Q 300.3 162.2 300.3 165.15
L 300.3 168.55
Q 300.3 172.55 299.35 173.35 298.2 174.05 295.5 174.05
L 295.5 160.45
Q 298.25 160.45 299.35 161.35
M 412.55 162.2
L 423.2 162.2 423.2 149.95 396.6 149.95 396.6 211.25 424.2 211.25 424.2 198.95 412.55 198.95 412.55 185.55 422.5 185.55 422.5 173.8 412.55 173.8 412.55 162.2
M 358 149.95
L 358 162.2 367.4 162.2 367.4 211.25 383.35 211.25 383.35 162.2 392.85 162.2 392.85 149.95 358 149.95
M 348.8 149.95
L 325.7 149.95 317.6 211.25 334.05 211.25 335 200.2 340.7 200.2 341.6 211.25 357.9 211.25 348.8 149.95
M 337.85 163.65
Q 339.1 178.95 340.35 189.35
L 334.85 189.35
Q 335.45 181.2 337.85 163.65
M 126.2 149.95
L 137.4 189.1 137.4 211.25 152.2 211.25 152.2 189.1 163.85 149.95 149.15 149.95
Q 146.05 164.25 144.7 174.05 144.25 167.9 140.9 149.95
L 126.2 149.95
M 205.6 160.95
L 205.6 194.9
Q 205.6 201.4 205.85 203.6 206.1 205.75 207.2 207.7 208.25 209.75 210.55 211 212.8 212.15 216.25 212.15 219.3 212.15 221.7 210.9 224 209.65 225.5 207.05
L 225.25 211.25 240.8 211.25 240.8 160.95 225.5 160.95 225.5 194.8
Q 225.5 201 225.25 202.1 224.9 203.25 223.2 203.25 221.6 203.25 221.25 202.2 220.9 201.1 220.9 195.25
L 220.9 160.95 205.6 160.95
M 197.2 165.6
Q 195.15 163.1 191.5 161.6 187.8 160.1 182.6 160.1 176.5 160.1 172.55 162.5 168.65 164.9 167.15 168.8 165.6 172.7 165.6 179.75
L 165.6 192.65
Q 165.6 199.05 166.4 202.25 167.2 205.4 169.2 207.7 171.15 209.9 174.7 211.1 178.15 212.15 183.25 212.15 187.8 212.15 191.35 210.9 194.8 209.55 197.05 206.8 199.25 204.05 199.95 200.95 200.7 197.75 200.7 190.95
L 200.7 178.7
Q 200.7 173.35 199.95 170.65 199.15 168.1 197.2 165.6
M 183.15 169
Q 184.5 169 184.95 169.95 185.4 171.05 185.4 174.85
L 185.4 198
Q 185.4 201.3 184.95 202.25 184.5 203.25 183.15 203.25 181.8 203.25 181.35 202.2 180.85 201.1 180.85 197.55
L 180.85 174.85
Q 180.85 171.05 181.35 169.95 181.8 169 183.15 169 Z"/>
</g>

<g id="Layer0_0_FILL">
<path fill="#8040BF" stroke="none" d="
M 217.9 159.45
L 202.6 159.45 202.6 193.4
Q 202.6 199.9 202.85 202.1 203.1 204.25 204.2 206.2 205.25 208.25 207.55 209.5 209.8 210.65 213.25 210.65 216.3 210.65 218.7 209.4 221 208.15 222.5 205.55
L 222.25 209.75 237.8 209.75 237.8 159.45 222.5 159.45 222.5 193.3
Q 222.5 199.5 222.25 200.6 221.9 201.75 220.2 201.75 218.6 201.75 218.25 200.7 217.9 199.6 217.9 193.75
L 217.9 159.45
M 194.2 164.1
Q 192.15 161.6 188.5 160.1 184.8 158.6 179.6 158.6 173.5 158.6 169.55 161 165.65 163.4 164.15 167.3 162.6 171.2 162.6 178.25
L 162.6 191.15
Q 162.6 197.55 163.4 200.75 164.2 203.9 166.2 206.2 168.15 208.4 171.7 209.6 175.15 210.65 180.25 210.65 184.8 210.65 188.35 209.4 191.8 208.05 194.05 205.3 196.25 202.55 196.95 199.45 197.7 196.25 197.7 189.45
L 197.7 177.2
Q 197.7 171.85 196.95 169.15 196.15 166.6 194.2 164.1
M 180.15 167.5
Q 181.5 167.5 181.95 168.45 182.4 169.55 182.4 173.35
L 182.4 196.5
Q 182.4 199.8 181.95 200.75 181.5 201.75 180.15 201.75 178.8 201.75 178.35 200.7 177.85 199.6 177.85 196.05
L 177.85 173.35
Q 177.85 169.55 178.35 168.45 178.8 167.5 180.15 167.5
M 160.85 148.45
L 146.15 148.45
Q 143.05 162.75 141.7 172.55 141.25 166.4 137.9 148.45
L 123.2 148.45 134.4 187.6 134.4 209.75 149.2 209.75 149.2 187.6 160.85 148.45 Z"/>

<path fill="#331A4D" stroke="none" d="
M 312.2 165.15
Q 312.2 157.35 309.7 153.8 307.1 150.15 303.2 149.35 299.1 148.45 287.9 148.45
L 276.6 148.45 276.6 209.75 292.5 209.75 292.5 182.1
Q 295.8 182.1 296.6 183.25 297.3 184.5 297.3 189.4
L 297.3 209.75 312.2 209.75 312.2 193.55
Q 312.2 186.15 311.8 184.55 311.4 182.9 309.75 180.9 308.1 178.95 303.35 177.7 308.6 177.25 310.4 174.8 312.2 172.3 312.2 165.15
M 292.5 172.55
L 292.5 158.95
Q 295.25 158.95 296.35 159.85 297.3 160.7 297.3 163.65
L 297.3 167.05
Q 297.3 171.05 296.35 171.85 295.2 172.55 292.5 172.55
M 338.6 209.75
L 354.9 209.75 345.8 148.45 322.7 148.45 314.6 209.75 331.05 209.75 332 198.7 337.7 198.7 338.6 209.75
M 331.85 187.85
Q 332.45 179.7 334.85 162.15 336.1 177.45 337.35 187.85
L 331.85 187.85
M 421.2 197.45
L 409.55 197.45 409.55 184.05 419.5 184.05 419.5 172.3 409.55 172.3 409.55 160.7 420.2 160.7 420.2 148.45 393.6 148.45 393.6 209.75 421.2 209.75 421.2 197.45
M 355 160.7
L 364.4 160.7 364.4 209.75 380.35 209.75 380.35 160.7 389.85 160.7 389.85 148.45 355 148.45 355 160.7 Z"/>
</g>
</defs>

<g transform="matrix( 1, 0, 0, 1, 0,0) ">
<use xlink:href="#Layer2_0_FILL"/>
</g>

<g transform="matrix( 1, 0, 0, 1, 0,0) ">
<use xlink:href="#Layer1_0_FILL"/>
</g>

<g transform="matrix( 1, 0, 0, 1, 0,0) ">
<use xlink:href="#Layer0_0_FILL"/>
</g>
</svg>
