
<svg xmlns="http://www.w3.org/2000/svg" version="1.1" xmlns:xlink="http://www.w3.org/1999/xlink" preserveAspectRatio="none" x="0px" y="0px" width="325px" height="75px" viewBox="0 0 325 75">
<defs>
<g id="Layer0_0_FILL">
<path fill="#CCCCCC" stroke="none" d="
M 100.15 61.3
L 99.05 61.3 99.3 57.1
Q 97.8 59.7 95.5 60.95 93.1 62.2 90.05 62.2 87.8 62.2 86.05 61.7 86.65 62.15 87.35 62.55 89.6 63.7 93.05 63.7 96.1 63.7 98.5 62.45 99.4 61.95 100.15 61.3
M 97.7 12.5
L 94.7 12.5 94.7 45.3
Q 94.7 51.15 95.05 52.25 95.4 53.3 97 53.3 97.55 53.3 97.95 53.2 97.7 51.6 97.7 46.8
L 97.7 12.5
M 117.6 12.5
L 114.6 12.5 114.6 61.3 102.15 61.3 102.05 62.8 117.6 62.8 117.6 28.45 117.6 28 117.6 12.5
M 194.6 61.3
L 194.4 62.8 210.85 62.8 211.8 51.75 214.65 51.75 214.5 50.25 208.8 50.25 207.85 61.3 194.6 61.3
M 188.6 36.1
Q 189 37.7 189 45.1
L 189 61.3 177.1 61.3 177.1 62.8 192 62.8 192 61.3 191.4 61.3 192 56.75 192 46.6
Q 192 39.2 191.6 37.6 191.2 35.95 189.55 33.95 188.35 32.5 185.45 31.5 186.1 31.95 186.55 32.45 188.2 34.45 188.6 36.1
M 173.6 35.2
Q 173.5 34.95 173.4 34.8 172.6 33.65 169.3 33.65
L 169.3 61.3 156.4 61.3 156.4 62.8 172.3 62.8 172.3 35.15
Q 173 35.15 173.6 35.2
M 173.65 12.05
Q 173.4 11.65 173.15 11.4 172.05 10.5 169.3 10.5
L 169.3 24.1
Q 171.15 24.1 172.3 23.8
L 172.3 12
Q 173 12 173.65 12.05
M 183.85 2.65
Q 185.3 3.7 186.5 5.35 189 8.9 189 16.7 189 23.85 187.2 26.35 185.4 28.8 180.15 29.25 182.5 29.85 184.1 30.65 188.55 30.1 190.2 27.85 192 25.35 192 18.2 192 10.4 189.5 6.85 187.2 3.6 183.85 2.65
M 208.65 39.4
L 211.8 39.4
Q 212.15 35 212.95 28.3 212.3 21.65 211.65 13.7 209.25 31.25 208.65 39.4
M 225.6 1.5
L 222.85 1.5 231.7 61.3 218.3 61.3 218.4 62.8 234.7 62.8 225.6 1.5
M 37.2 1.5
L 26 39.15 26 61.3 14.2 61.3 14.2 62.8 29 62.8 29 40.65 40.65 1.5 37.2 1.5
M 20.05 14.65
Q 19.1 9.15 17.7 1.5
L 15 1.5
Q 18.05 18.2 18.5 24.1 19.1 19.8 20.05 14.65
M 56.95 19.05
Q 55.6 19.05 55.15 20 54.65 21.1 54.65 24.9
L 54.65 47.6
Q 54.65 51.15 55.15 52.25 55.6 53.3 56.95 53.3 57.55 53.3 57.95 53.15 57.65 51.85 57.65 49.1
L 57.65 26.4
Q 57.65 22.6 58.15 21.5 58.4 20.95 58.95 20.75 58.85 20.3 58.75 20 58.3 19.05 56.95 19.05
M 68.3 13.15
Q 68.15 13.1 68 13.05 69.8 14.15 71 15.65 72.95 18.15 73.75 20.7 74.5 23.4 74.5 28.75
L 74.5 41
Q 74.5 47.8 73.75 51 73.05 54.1 70.85 56.85 68.6 59.6 65.15 60.95 61.6 62.2 57.05 62.2 51.95 62.2 48.5 61.15 48.25 61.05 48 61 49.5 61.95 51.5 62.65 54.95 63.7 60.05 63.7 64.6 63.7 68.15 62.45 71.6 61.1 73.85 58.35 76.05 55.6 76.75 52.5 77.5 49.3 77.5 42.5
L 77.5 30.25
Q 77.5 24.9 76.75 22.2 75.95 19.65 74 17.15 71.95 14.65 68.3 13.15
M 241.2 13.75
L 241.2 12.25 234.8 12.25 234.8 13.75 241.2 13.75
M 266.65 1.5
L 266.65 12.25 257.15 12.25 257.15 61.3 244.2 61.3 244.2 62.8 260.15 62.8 260.15 13.75 269.65 13.75 269.65 1.5 266.65 1.5
M 273.4 61.3
L 273.4 62.8 301 62.8 301 50.5 298 50.5 298 61.3 273.4 61.3
M 299.3 37.1
L 299.3 25.35 296.3 25.35 296.3 35.6 286.35 35.6 286.35 49 289.35 49 289.35 37.1 299.3 37.1
M 300 1.5
L 297 1.5 297 12.25 286.35 12.25 286.35 23.85 289.35 23.85 289.35 13.75 300 13.75 300 1.5 Z"/>

<path fill="#331A4D" stroke="none" d="
M 114.6 12.5
L 114.6 11 99.3 11 99.3 44.85
Q 99.3 51.05 99.05 52.15 98.8 52.95 97.95 53.2 97.55 53.3 97 53.3 95.4 53.3 95.05 52.25 94.7 51.15 94.7 45.3
L 94.7 12.5 94.7 11 79.4 11 79.4 44.95
Q 79.4 51.45 79.65 53.65 79.9 55.8 81 57.75 82.05 59.8 84.35 61.05 85.15 61.45 86.05 61.7 87.8 62.2 90.05 62.2 93.1 62.2 95.5 60.95 97.8 59.7 99.3 57.1
L 99.05 61.3 100.15 61.3 102.15 61.3 114.6 61.3 114.6 12.5
M 135.7 17.25
L 135.45 40.75 144.5 47.4 141.4 36.2 151 29.65 138.95 29.15 135.7 17.25
M 37.2 1.5
L 37.65 0 22.95 0
Q 21.2 8 20.05 14.65 19.1 19.8 18.5 24.1 18.05 18.2 15 1.5 14.85 0.75 14.7 0
L 0 0 11.2 39.15 11.2 61.3 14.2 61.3 26 61.3 26 39.15 37.2 1.5
M 68 13.05
Q 66.8 12.25 65.3 11.65 61.6 10.15 56.4 10.15 50.3 10.15 46.35 12.55 42.45 14.95 40.95 18.85 39.4 22.75 39.4 29.8
L 39.4 42.7
Q 39.4 49.1 40.2 52.3 41 55.45 43 57.75 44.8 59.8 48 61 48.25 61.05 48.5 61.15 51.95 62.2 57.05 62.2 61.6 62.2 65.15 60.95 68.6 59.6 70.85 56.85 73.05 54.1 73.75 51 74.5 47.8 74.5 41
L 74.5 28.75
Q 74.5 23.4 73.75 20.7 72.95 18.15 71 15.65 69.8 14.15 68 13.05
M 55.15 20
Q 55.6 19.05 56.95 19.05 58.3 19.05 58.75 20 58.85 20.3 58.95 20.75 59.2 22.05 59.2 24.9
L 59.2 48.05
Q 59.2 51.35 58.75 52.3 58.5 52.85 57.95 53.15 57.55 53.3 56.95 53.3 55.6 53.3 55.15 52.25 54.65 51.15 54.65 47.6
L 54.65 24.9
Q 54.65 21.1 55.15 20 Z"/>

<path fill="#1E1E1E" stroke="none" d="
M 142.95 36.75
L 153.4 29.05 153.4 28.5 140.2 27.95 135.7 14.8 130.95 27.8 117.6 28 117.6 28.45 128 36.6 123.85 49.9 135.4 42.15 146.75 50.15 142.95 36.75
M 125.9 47.25
L 129.65 36 120.75 29 131.75 29 135.7 17.25 138.95 29.15 151 29.65 141.4 36.2 144.5 47.4 135.45 40.75 125.9 47.25 Z"/>

<path fill="#8040BF" stroke="none" d="
M 129.65 36
L 125.9 47.25 135.45 40.75 135.7 17.25 131.75 29 120.75 29 129.65 36
M 186.5 5.35
Q 185.3 3.7 183.85 2.65 182.1 1.35 180 0.9 175.9 0 164.7 0
L 153.4 0 153.4 28.5 153.4 29.05 153.4 61.3 156.4 61.3 169.3 61.3 169.3 33.65
Q 172.6 33.65 173.4 34.8 173.5 34.95 173.6 35.2 174.1 36.7 174.1 40.95
L 174.1 61.3 177.1 61.3 189 61.3 189 45.1
Q 189 37.7 188.6 36.1 188.2 34.45 186.55 32.45 186.1 31.95 185.45 31.5 184.85 31.05 184.1 30.65 182.5 29.85 180.15 29.25 185.4 28.8 187.2 26.35 189 23.85 189 16.7 189 8.9 186.5 5.35
M 173.15 11.4
Q 173.4 11.65 173.65 12.05 174.1 13.1 174.1 15.2
L 174.1 18.6
Q 174.1 22.6 173.15 23.4 172.8 23.6 172.3 23.8 171.15 24.1 169.3 24.1
L 169.3 10.5
Q 172.05 10.5 173.15 11.4
M 222.85 1.5
L 222.6 0 199.5 0 192 56.75 191.4 61.3 192 61.3 194.6 61.3 207.85 61.3 208.8 50.25 214.5 50.25 214.65 51.75 215.4 61.3 218.3 61.3 231.7 61.3 222.85 1.5
M 214.15 39.4
L 211.8 39.4 208.65 39.4
Q 209.25 31.25 211.65 13.7 212.3 21.65 212.95 28.3 213.55 34.4 214.15 39.4
M 266.65 12.25
L 266.65 1.5 266.65 0 231.8 0 231.8 12.25 234.8 12.25 241.2 12.25 241.2 13.75 241.2 61.3 244.2 61.3 257.15 61.3 257.15 12.25 266.65 12.25
M 297 12.25
L 297 1.5 297 0 270.4 0 270.4 61.3 273.4 61.3 298 61.3 298 50.5 298 49 289.35 49 286.35 49 286.35 35.6 296.3 35.6 296.3 25.35 296.3 23.85 289.35 23.85 286.35 23.85 286.35 12.25 297 12.25 Z"/>
</g>
</defs>

<g transform="matrix( 1, 0, 0, 1, 7.65,6.25) ">
<g transform="matrix( 1, 0, 0, 1, 0,0) ">
<use xlink:href="#Layer0_0_FILL"/>
</g>
</g>
</svg>
